PathFileType	4	(X/Y/Z)	..\data\2014014\dynamic\2014014_C4_05.trc
DataRate	CameraRate	NumFrames	NumMarkers	Units	OrigDataRate	OrigDataStartFrame	OrigNumFrames
100.000000	100.000000	4	52	mm	100.000000	0	180
Frame#	Time	L_IAS			L_IPS			R_IPS			R_IAS			L_FTC			L_FLE			L_FME			L_FAX			L_TTC			L_FAL			L_TAM			L_FCC			L_FM1			L_FM2			L_FM5			R_FTC			R_FLE			R_FME			R_FAX			R_TTC			R_FAL			R_TAM			R_FCC			R_FM1			R_FM2			R_FM5			CV7			TV10			SXS			SJN			L_SIA			L_SRS			L_SAA			L_SAE			L_HLE			L_HME			L_UOA			L_RSP			L_UHE			L_HM2			L_HM5			R_SIA			R_SRS			R_SAA			R_SAE			R_HLE			R_HME			R_UOA			R_RSP			R_UHE			R_HM2			R_HM5			
		X1	Y1	Z1	X2	Y2	Z2	X3	Y3	Z3	X4	Y4	Z4	X5	Y5	Z5	X6	Y6	Z6	X7	Y7	Z7	X8	Y8	Z8	X9	Y9	Z9	X10	Y10	Z10	X11	Y11	Z11	X12	Y12	Z12	X13	Y13	Z13	X14	Y14	Z14	X15	Y15	Z15	X16	Y16	Z16	X17	Y17	Z17	X18	Y18	Z18	X19	Y19	Z19	X20	Y20	Z20	X21	Y21	Z21	X22	Y22	Z22	X23	Y23	Z23	X24	Y24	Z24	X25	Y25	Z25	X26	Y26	Z26	X27	Y27	Z27	X28	Y28	Z28	X29	Y29	Z29	X30	Y30	Z30	X31	Y31	Z31	X32	Y32	Z32	X33	Y33	Z33	X34	Y34	Z34	X35	Y35	Z35	X36	Y36	Z36	X37	Y37	Z37	X38	Y38	Z38	X39	Y39	Z39	X40	Y40	Z40	X41	Y41	Z41	X42	Y42	Z42	X43	Y43	Z43	X44	Y44	Z44	X45	Y45	Z45	X46	Y46	Z46	X47	Y47	Z47	X48	Y48	Z48	X49	Y49	Z49	X50	Y50	Z50	X51	Y51	Z51	X52	Y52	Z52	

1	0	-1227.66748046875	981.5466918945315	131.3214569091796	-1440.762573242188	999.0178833007815	191.0091705322264	-1446.85986328125	997.7234497070315	293.432647705078	-1252.196655273438	971.908142089844	385.1668090820312	-1294.173828125	886.6016845703127	52.20822906494126	-1182.746215820313	492.8967285156251	102.5909042358397	-1179.025268554688	483.5042724609376	240.5408477783202	-1178.603759765625	432.9195556640626	98.89672088623036	-1105.276489257813	446.1141052246095	147.7042388916014	-1041.349365234375	80.27845001220705	110.1572799682616	-1021.863586425781	118.4558029174805	204.4174041748046	-1067.166870117188	16.17364120483399	172.8700866699218	-877.795349121094	87.95238494873048	187.3417663574218	-885.1004028320315	106.7356109619141	133.3494873046874	-922.785095214844	68.49086761474611	82.54360961914053	-1339.167358398438	873.2604980468752	434.3979187011718	-1451.9794921875	483.7175598144532	348.7401733398436	-1405.927001953125	482.9575195312501	226.3438110351561	-1487.923706054688	438.3198547363282	350.9328613281249	-1420.817749023438	408.2080688476564	309.3522949218749	-1617.124145507813	82.64974212646486	320.8129882812499	-1567.765991210938	103.832260131836	230.9276123046874	-1654.104858398438	50.78367996215822	253.9849853515624	-1453.518920898438	21.09528350830078	251.9641876220702	-1453.53564453125	36.09817504882813	311.336212158203	-1505.741943359375	18.92143058776856	364.7913818359374	-1361.993041992188	1523.216552734375	263.8031311035155	-1473.924072265625	1285.050048828125	253.4246826171874	-1198.564086914063	1236.31103515625	256.9339294433593	-1242.377807617188	1421.376342773438	265.3512268066405	-1492.991088867188	1317.601684570313	152.8258209228514	-1439.553833007813	1457.48486328125	151.2939605712889	-1398.436645507813	1453.417602539063	86.80401611328109	-1350.758178710938	1444.878051757813	58.77461242675766	-1426.296752929688	1115.8837890625	-32.60617828369159	-1463.830200195313	1112.992065429688	54.0538482666014	-1468.474487304688	1104.679931640625	-3.354099035263242	-1375.6240234375	848.711120605469	15.87165737152083	-1450.05078125	859.062927246094	-37.37388610839862	-1364.13330078125	758.4491577148439	0.9451972842214823	-1469.625732421875	778.502868652344	-39.55291366577167	-1481.26025390625	1310.713134765625	381.9523620605468	-1419.372192382813	1446.322509765625	395.8536682128906	-1374.726318359375	1427.775512695313	462.2261657714843	-1325.91552734375	1422.4609375	477.3277587890624	-1301.422485351563	1093.274780273438	578.0181884765625	-1336.275146484375	1067.860473632813	484.1180114746093	-1343.288940429688	1062.315795898438	554.1575317382812	-1151.897827148438	870.6560668945315	518.2906494140625	-1210.72119140625	856.9075317382815	587.9389038085938	-1093.244262695313	794.9287109375002	545.028564453125	-1192.037231445313	760.2410888671876	583.9050903320312	
2	0.01	-1215.1826171875	979.8114013671877	130.6819305419921	-1428.367553710938	997.1552734375002	189.8806915283202	-1434.822387695313	996.2937622070315	292.2090759277343	-1240.47509765625	970.7066650390627	384.8193359374999	-1281.565795898438	884.751892089844	51.62745666503892	-1171.236938476563	491.3072204589845	103.5075073242186	-1168.749145507813	481.8991088867189	241.5096588134765	-1166.305419921875	431.5153198242189	99.44608306884754	-1093.662719726563	445.524871826172	149.3878021240233	-1025.248291015625	80.47149658203126	110.0510177612304	-1007.141906738281	118.4668197631836	204.6789398193359	-1051.202758789063	16.01192665100098	172.1191101074218	-862.5291137695315	90.13555908203126	189.2342071533202	-869.244079589844	108.5222549438477	135.1381378173827	-905.9609985351565	69.7437210083008	84.00482940673818	-1328.157470703125	872.310974121094	433.7828674316406	-1443.730834960938	483.701629638672	349.0560607910155	-1397.07861328125	482.1666870117189	226.7905883789061	-1480.23583984375	438.8202514648439	351.3706665039061	-1413.568359375	407.4928588867189	309.7067871093749	-1615.995727539063	85.4593963623047	321.490020751953	-1566.41162109375	105.7329330444336	231.5202636718749	-1653.588989257813	54.32689666748048	254.6932220458983	-1453.401123046875	21.20114135742188	252.0411376953124	-1453.39892578125	36.21024703979493	311.3641967773436	-1505.661254882813	18.92868804931641	364.7410583496093	-1351.3466796875	1521.617065429688	261.9013671874999	-1462.720458984375	1283.155151367188	251.8672637939452	-1187.035034179688	1235.113525390625	255.7958526611327	-1231.447631835938	1420.019653320313	263.7511901855468	-1481.844360351563	1315.401733398438	151.376998901367	-1428.700073242188	1455.402587890625	149.6560668945311	-1387.627319335938	1451.233276367188	85.09238433837875	-1339.74267578125	1442.738037109375	57.11355972290024	-1415.340698242188	1113.546630859375	-33.64390563964862	-1453.280151367188	1110.973876953125	53.47492980957015	-1457.443359375	1102.326538085938	-4.26874828338641	-1365.325805664063	846.3516845703127	15.11692619323714	-1439.8505859375	856.8172607421877	-38.18788909912128	-1354.248779296875	755.9732055664064	0.4079025685785543	-1459.691650390625	776.3154907226565	-40.130813598633	-1470.318969726563	1308.86083984375	380.1629638671874	-1408.799072265625	1444.876953125	394.1034240722656	-1364.152709960938	1426.495483398438	460.6084289550781	-1315.3583984375	1421.271484375	475.7117919921874	-1290.63134765625	1092.468627929688	577.257080078125	-1325.103759765625	1066.626953125	483.3314514160156	-1332.44580078125	1061.353149414063	553.373779296875	-1140.532836914063	870.0278930664065	518.647216796875	-1199.740478515625	856.2607421875002	588.0491943359375	-1081.803466796875	794.5465087890627	545.916748046875	-1180.737426757813	759.6566772460939	584.3306884765625	
3	0.02	-1202.465209960938	978.3206787109377	129.9641571044921	-1415.792358398438	995.563171386719	188.7524108886717	-1422.5341796875	995.0618286132815	290.9904174804686	-1228.434814453125	969.6138305664065	384.4033508300781	-1268.6669921875	883.2500000000002	50.99022674560533	-1159.232666015625	490.0071105957032	103.9926528930663	-1157.839599609375	480.5801696777345	241.9623565673827	-1153.915161132813	430.2532653808595	99.65931701660145	-1081.919555664063	444.7129516601564	150.5787506103514	-1011.490112304688	80.09919738769533	110.1768493652343	-994.563903808594	117.8441848754883	205.152359008789	-1038.135131835938	15.84309768676758	171.6990814208984	-849.7470703125002	90.49695587158205	191.4398193359374	-855.654235839844	108.4939346313477	137.1912078857421	-891.7106933593752	69.42567443847658	85.80280303955068	-1316.861572265625	871.463317871094	433.0849304199218	-1435.010131835938	483.7373962402345	349.5679931640624	-1387.838989257813	481.3957824707032	227.3921051025389	-1472.074951171875	439.3710021972657	352.0245056152343	-1405.913818359375	406.8101806640626	310.2241210937499	-1614.683227539063	88.54127502441408	322.5294799804686	-1564.92578125	107.8741836547852	232.4378967285155	-1652.970458984375	58.26525115966798	255.8015747070311	-1453.30126953125	21.25335693359375	252.0961303710936	-1453.2236328125	36.30929183959962	311.4012451171874	-1505.492431640625	18.826078414917	364.7381286621093	-1340.6552734375	1520.144775390625	259.9213562011718	-1451.374755859375	1281.33056640625	250.3009643554686	-1175.373046875	1234.101928710938	254.5655670166015	-1220.441284179688	1418.823608398438	262.0662536621093	-1470.573486328125	1313.268310546875	149.8596801757811	-1417.77734375	1453.400024414063	147.9154815673827	-1376.743041992188	1449.159057617188	83.29949951171859	-1328.602783203125	1440.72412109375	55.38022994995102	-1404.087280273438	1111.298461914063	-34.80529022216815	-1442.421997070313	1109.006591796875	52.68153762817366	-1446.130493164063	1100.064331054688	-5.349553585052668	-1354.695922851563	844.0918579101565	14.23694992065414	-1429.237182617188	854.6588134765627	-39.18357467651386	-1343.986694335938	753.6198730468751	-0.2771663963796355	-1449.33740234375	774.2083740234377	-40.89686203002948	-1459.299072265625	1307.07421875	378.2818908691405	-1398.186401367188	1443.539916992188	392.2613830566406	-1353.549438476563	1425.329833984375	458.8997497558593	-1304.775512695313	1420.202270507813	474.0149536132812	-1280.00732421875	1091.72509765625	576.3116455078125	-1314.019897460938	1065.5078125	482.3290405273437	-1321.766479492188	1060.503540039063	552.3759765625	-1129.455322265625	869.3812255859377	518.8767700195312	-1189.065307617188	855.6257324218752	587.9898681640625	-1070.730346679688	794.090759277344	546.697021484375	-1169.853881835938	759.0715942382814	584.5845947265625	
4	0.03	-1189.514526367188	977.1287841796877	129.1581726074218	-1403.028686523438	994.2595825195315	187.6252288818358	-1409.983642578125	994.0320434570315	289.7810974121093	-1216.0546875	968.6514282226565	383.8971252441405	-1255.470336914063	882.1433715820315	50.28546524047837	-1146.791015625	488.9969787597657	104.0507659912108	-1146.318725585938	479.5573120117189	241.9137115478515	-1141.453247070313	429.1430969238282	99.53641510009754	-1070.045288085938	443.7069702148439	151.2477569580077	-999.8684692382815	79.16079711914064	110.4751358032226	-983.9319458007815	116.5977172851563	205.7748260498046	-1027.753784179688	15.6673002243042	171.5600280761718	-839.225769042969	89.02373504638673	193.8774108886718	-844.1111450195315	106.6365509033203	139.4312133789062	-879.8358154296877	67.53265380859376	87.84140014648428	-1305.237060546875	870.722106933594	432.2962951660156	-1425.764892578125	483.8177490234376	350.2883911132811	-1378.173950195313	480.6444702148439	228.1445159912108	-1463.410278320313	439.9685058593751	352.8969726562499	-1397.814453125	406.1551818847657	310.9201660156249	-1613.135498046875	91.90252685546876	323.9106445312499	-1563.22412109375	110.2646789550782	233.6786651611327	-1652.173095703125	62.6252784729004	257.2713623046873	-1453.22900390625	21.22063446044922	252.1103210449218	-1453.020629882813	36.36874771118165	311.437286376953	-1505.244750976563	18.6132869720459	364.7687683105468	-1329.919189453125	1518.822143554688	257.8702087402343	-1439.881958007813	1279.598022460938	248.7371673583983	-1163.577514648438	1233.306762695313	253.2432250976562	-1209.358520507813	1417.815795898438	260.2963867187499	-1459.180297851563	1311.222045898438	148.2870788574217	-1406.794799804688	1451.499633789063	146.0843963623045	-1365.794921875	1447.21826171875	81.43547821044906	-1317.361572265625	1438.8603515625	53.58036422729477	-1392.531494140625	1109.160400390625	-36.08008575439471	-1431.226196289063	1107.0986328125	51.6775054931639	-1434.52978515625	1097.913940429688	-6.581983566284357	-1343.727905273438	841.9498291015627	13.22946834564193	-1418.217407226563	852.6088867187502	-40.35672760009783	-1333.339599609375	751.4083862304689	-1.113587498665019	-1438.5595703125	772.2045898437502	-41.86066436767597	-1448.18701171875	1305.379150390625	376.3287658691405	-1387.525634765625	1442.334228515625	390.3372497558593	-1342.9052734375	1424.305053710938	457.1057434082031	-1294.154418945313	1419.28271484375	472.2421874999999	-1269.554321289063	1091.068481445313	575.1838989257812	-1303.031127929688	1064.533203125	481.1125793457031	-1311.251831054688	1059.79052734375	551.16650390625	-1118.6748046875	868.7329711914065	518.9718017578125	-1178.6982421875	855.022155761719	587.7557983398438	-1060.036499023438	793.5780029296877	547.3600463867188	-1159.397583007813	758.5043945312501	584.6570434570312	
